<mxfile host="app.diagrams.net" modified="2024-07-21T10:31:35.995Z" agent="Mozilla/5.0 (Windows NT 10.0; Win64; x64) AppleWebKit/537.36 (KHTML, like Gecko) Chrome/126.0.0.0 Safari/537.36" version="24.7.1" etag="Im0wY1pGa1dx5HLIopAl" type="github">
  <diagram name="第 1 页" id="Sk8U8zPsscKAXeTV8vvy">
    <mxGraphModel>
      <root>
        <mxCell id="0" />
        <mxCell id="1" parent="0" />
      </root>
    </mxGraphModel>
  </diagram>
</mxfile>
